<svg xmlns="http://www.w3.org/2000/svg" viewBox="0 0 64 64">
  <rect width="64" height="64" rx="14" fill="#2c7be5"/>
  <path d="M22 33c0 6 6 11 14 11 8 0 14-5 14-11-3 1-6 0-8-2-3-3-8-5-13-3-3 1-5 3-7 5z" fill="#8fd3ff"/>
  <circle cx="40" cy="28" r="2.3" fill="#1f1f1f"/>
  <path d="M18 36c2 4 6 7 10 8-4 1-8-1-10-4-1-2-1-3 0-4z" fill="#1a70d1" opacity=".35"/>
  <path d="M20 26c2-4 7-7 12-7 6 0 10 3 13 7-2 1-5 1-8-1-5-3-12-2-17 1z" fill="#bfe9ff"/>
  <circle cx="48" cy="36" r="3" fill="#ffd166"/>
</svg>
